# Blender v2.71 (sub 0) OBJ File: 'untitled.blend'
# www.blender.org
mtllib LitleHead.mtl
o Piece_Burner.001
v -0.656652 -0.290039 0.633436
v -0.561415 -0.304265 0.637181
v -0.319841 -0.173434 0.588154
v -0.584558 -0.146555 0.573971
v -0.625548 0.274440 0.634829
v -0.524568 0.287041 0.635541
v -0.517596 0.316727 0.527252
v -0.626337 0.287130 0.534108
v -0.607981 -0.167183 0.305418
v -0.343287 -0.269654 0.305840
v -0.572272 -0.331493 0.534383
v -0.667315 -0.301365 0.533684
v 0.547540 -0.327791 0.645123
v 0.647076 -0.312510 0.641036
v 0.584884 -0.160671 0.578687
v 0.314697 -0.185092 0.592019
v 0.541221 0.286437 0.635728
v 0.642176 0.273835 0.635015
v 0.642882 0.286427 0.534311
v 0.534300 0.316158 0.527417
v 0.313737 -0.293702 0.314627
v 0.598928 -0.188484 0.313090
v 0.651179 -0.328887 0.543208
v 0.548687 -0.361645 0.544835
v -0.575916 0.142450 -0.300535
v -0.267986 0.247194 -0.272019
v -0.517047 0.316049 -0.520655
v -0.625750 0.286402 -0.527596
v -0.524007 0.286327 -0.628980
v -0.625047 0.273780 -0.628297
v -0.296124 0.140670 -0.576877
v -0.566961 0.119783 -0.569032
v -0.675604 -0.281129 -0.655222
v -0.578763 -0.297027 -0.660224
v -0.591927 -0.323199 -0.564639
v -0.686726 -0.292468 -0.559989
v 0.284665 0.246611 -0.271883
v 0.590112 0.139798 -0.299471
v 0.642882 0.286201 -0.527692
v 0.534300 0.315940 -0.520779
v 0.642176 0.273571 -0.628396
v 0.541221 0.286185 -0.629092
v 0.581543 0.117662 -0.567970
v 0.312322 0.139756 -0.576489
v 0.550502 -0.330890 -0.639611
v 0.648646 -0.314257 -0.634949
v 0.653106 -0.330951 -0.537324
v 0.552340 -0.365404 -0.539884
v -0.567798 0.121262 0.573505
v -0.297995 0.142816 0.582235
v -0.576818 0.143754 0.304878
v -0.268975 0.248251 0.278077
v 0.581517 0.117907 0.574591
v 0.311897 0.140359 0.583032
v 0.590080 0.139951 0.306090
v 0.284493 0.246882 0.278498
v 0.585940 -0.161897 -0.572415
v 0.318680 -0.189239 -0.587409
v 0.600141 -0.189773 -0.307146
v 0.317872 -0.298141 -0.313422
v -0.591258 -0.144691 -0.582449
v -0.613312 -0.165975 -0.319282
v -0.321723 -0.175389 -0.595375
v -0.346945 -0.270877 -0.327420
v -0.093119 0.256612 -0.097664
v 0.109538 0.256252 -0.097570
v -0.093457 0.256973 0.103903
v 0.109350 0.256473 0.104052
vt 0.562500 0.500000
vt 0.625000 0.500000
vt 0.625000 0.656250
vt 0.281250 0.656250
vt 0.343750 0.656250
vt 0.343750 0.718750
vt 0.281250 0.718750
vt 0.562500 0.656250
vt 0.937500 0.500000
vt 0.937500 0.656250
vt 0.875000 0.656250
vt 0.625000 0.718750
vt 0.625000 0.906250
vt 0.562500 0.906250
vt 0.875000 0.718750
vt 0.937500 0.718750
vt 0.937500 0.906250
vt 0.875000 0.906250
vt 0.562500 0.718750
vt 0.875000 0.500000
vt 0.750000 0.656250
vt 0.875000 0.468750
vt 0.625000 0.468750
vt 0.625000 0.187500
vt 0.875000 0.187500
vn 0.012300 0.330900 0.943600
vn -0.121500 0.959200 0.255100
vn -0.260700 -0.833700 -0.486800
vn -0.151400 -0.980200 0.127500
vn 0.427400 -0.884100 0.189000
vn -0.885700 0.462300 0.041700
vn 0.010900 0.383600 0.923400
vn 0.254900 0.959300 0.121700
vn 0.287500 -0.787200 -0.545600
vn 0.302500 -0.937900 0.169700
vn 0.944900 0.326900 -0.015100
vn -0.547200 -0.778700 0.306800
vn -0.258400 0.832800 0.489500
vn -0.120800 0.959200 -0.255400
vn 0.030100 -0.294500 -0.955200
vn -0.307900 -0.906000 -0.290500
vn 0.561100 0.763900 -0.318700
vn -0.957900 -0.285700 0.029100
vn 0.317700 0.763000 0.562900
vn 0.254900 0.959200 -0.122100
vn -0.000100 -0.361300 -0.932400
vn 0.172600 -0.969600 -0.173700
vn 0.932000 -0.362400 0.000100
vn -0.490200 0.832000 -0.259900
vn 0.031100 -0.303200 0.952400
vn -0.935500 -0.353400 0.001800
vn -0.257900 0.834700 -0.486700
vn 0.489500 0.832400 0.259700
vn -0.051200 0.022200 0.998400
vn -0.997300 0.062500 0.038700
vn 0.032500 0.015100 0.999400
vn 0.998400 0.028000 0.049900
vn -0.000900 -0.361000 0.932600
vn -0.560300 0.764900 0.318000
vn 0.317800 0.762800 -0.563100
vn 0.954500 -0.296700 -0.030400
vn 0.033000 0.016400 -0.999300
vn 0.999300 0.016200 -0.033200
vn 0.012500 0.384100 -0.923200
vn -0.500900 -0.820700 -0.274800
vn 0.289200 -0.784900 0.548000
vn 0.923400 0.383800 -0.009100
vn -0.989600 0.124400 -0.072900
vn -0.040800 0.061700 -0.997300
vn -0.836300 0.547300 -0.032500
vn -0.255000 -0.854900 0.451900
vn 0.465700 -0.846600 -0.257800
vn 0.024000 0.430300 -0.902400
vn 0.001600 0.943700 -0.330900
vn -0.030300 -0.928800 -0.369300
vn 0.013200 0.033400 -0.999400
vn 0.330300 0.943900 -0.000200
vn 0.346200 -0.938100 0.008900
vn 0.999600 0.027000 0.001900
vn 0.003400 0.944000 0.329900
vn -0.005600 0.027600 0.999600
vn -0.038900 -0.930400 0.364400
vn -0.366400 -0.930500 0.001300
vn -0.992700 0.120500 -0.001700
vn -0.321800 0.946800 -0.002400
vn 0.001100 0.998500 -0.055000
vn -0.051500 0.998700 -0.001900
vn 0.002400 0.998600 0.052500
vn 0.055100 0.998500 -0.000500
vn 0.001800 1.000000 -0.001800
vn -0.041100 -0.999100 0.006800
vn -0.010100 0.387200 0.922000
vn -0.253400 0.959500 0.122900
vn -0.303100 -0.785000 -0.540200
vn -0.292500 -0.916300 0.273600
vn 0.499600 -0.831800 0.242000
vn -0.885300 0.463000 0.042100
vn -0.012100 0.331300 0.943400
vn 0.121500 0.959200 0.255400
vn 0.255600 -0.824800 -0.504300
vn 0.156600 -0.935200 0.317500
vn 0.924100 0.382100 0.008800
vn -0.503100 -0.820600 0.271200
vn -0.313300 0.769500 0.556600
vn -0.253900 0.959500 -0.122000
vn 0.000600 -0.359000 -0.933400
vn -0.167300 -0.976500 -0.135800
vn 0.489500 0.832400 -0.259800
vn -0.935500 -0.353400 -0.001400
vn 0.259000 0.831500 0.491400
vn 0.121600 0.959100 -0.255700
vn -0.030400 -0.295600 -0.954800
vn 0.314200 -0.895400 -0.315700
vn 0.954500 -0.296500 0.030500
vn -0.561700 0.763500 -0.318800
vn -0.000300 -0.371800 0.928300
vn -0.958000 -0.285400 -0.028500
vn -0.310800 0.774200 -0.551400
vn 0.561200 0.764000 0.318400
vn -0.032600 0.003800 0.999500
vn -0.991900 0.099500 0.078900
vn 0.046700 0.028000 0.998500
vn 0.999400 0.012600 0.032900
vn -0.030300 -0.296700 0.954500
vn -0.489600 0.832400 0.259700
vn 0.258900 0.831600 -0.491300
vn 0.932000 -0.362500 -0.000000
vn 0.052500 0.034100 -0.998000
vn 0.998200 0.031500 -0.050100
vn -0.011000 0.329800 -0.944000
vn -0.545600 -0.778300 -0.310900
vn 0.265300 -0.814200 0.516500
vn 0.943300 0.331700 0.013600
vn -0.994800 0.093500 -0.041100
vn -0.033000 0.053700 -0.998000
vn -0.843700 0.536200 -0.027300
vn -0.300700 -0.803400 0.513900
vn 0.381600 -0.903500 -0.194800
vn 0.010600 0.465500 -0.885000
vn 0.001100 0.944000 -0.330000
vn -0.016200 -0.941400 -0.337000
vn 0.000700 0.058400 -0.998300
vn 0.330100 0.944000 -0.000400
vn 0.358400 -0.933600 0.002600
vn 0.999500 0.030400 0.000000
vn 0.002100 0.944800 0.327700
vn -0.001200 0.018800 0.999800
vn -0.019400 -0.945900 0.324000
vn -0.361000 -0.932500 0.003900
vn -0.995000 0.099700 0.008700
vn -0.321600 0.946900 -0.002500
vn 0.001800 0.998600 -0.053400
vn -0.051800 0.998700 -0.002000
vn 0.002400 0.998600 0.052400
vn 0.053900 0.998500 -0.001000
vn 0.002500 1.000000 -0.001100
vn -0.036600 -0.999300 0.002100
usemtl None
s off
f 1/1/1 2/2/1 3/3/1
f 5/4/2 6/5/2 7/6/2
f 10/3/3 11/2/3 12/1/3
f 2/5/4 1/4/4 12/7/4
f 2/1/5 11/2/5 10/3/5
f 1/1/6 4/8/6 9/3/6
f 14/9/7 15/10/7 16/11/7
f 18/5/8 19/6/8 20/7/8
f 21/11/9 22/10/9 23/9/9
f 24/7/10 23/6/10 14/5/10
f 14/1/11 23/2/11 22/3/11
f 13/1/12 16/8/12 21/3/12
f 26/12/13 27/13/13 28/14/13
f 27/5/14 29/6/14 30/7/14
f 30/14/15 29/13/15 31/12/15
f 34/6/16 35/5/16 36/4/16
f 26/15/17 31/16/17 29/17/17
f 25/15/18 28/18/18 30/17/18
f 37/15/19 38/16/19 39/17/19
f 40/4/20 39/5/20 41/6/20
f 41/17/21 43/16/21 44/15/21
f 45/7/22 46/6/22 47/5/22
f 38/15/23 43/16/23 41/17/23
f 37/15/24 40/18/24 42/17/24
f 50/12/25 6/13/25 5/14/25
f 51/12/26 49/19/26 5/14/26
f 8/14/27 7/13/27 52/12/27
f 52/12/28 7/13/28 6/14/28
f 4/8/29 3/3/29 50/12/29
f 4/8/30 49/19/30 51/12/30
f 15/10/31 53/16/31 54/15/31
f 15/8/32 22/3/32 55/12/32
f 54/15/33 53/16/33 18/17/33
f 56/12/34 54/19/34 17/14/34
f 19/17/35 55/16/35 56/15/35
f 55/12/36 19/13/36 18/14/36
f 44/15/37 43/16/37 57/10/37
f 57/10/38 43/16/38 38/15/38
f 58/11/39 57/10/39 46/9/39
f 45/9/40 48/20/40 60/11/40
f 47/9/41 59/10/41 60/11/41
f 46/9/42 57/10/42 59/11/42
f 61/10/43 62/11/43 25/15/43
f 31/12/44 63/3/44 61/8/44
f 33/9/45 36/20/45 62/11/45
f 36/1/46 35/2/46 64/3/46
f 34/9/47 63/10/47 64/11/47
f 63/3/48 34/2/48 33/1/48
f 37/11/49 44/15/49 31/12/49
f 58/15/50 60/21/50 64/21/50
f 44/15/51 58/11/51 63/3/51
f 56/11/52 55/15/52 38/12/52
f 22/15/53 21/11/53 60/21/53
f 55/12/54 22/3/54 59/11/54
f 50/12/55 54/15/55 56/11/55
f 3/3/56 16/11/56 54/15/56
f 10/3/57 21/11/57 16/15/57
f 9/12/58 62/15/58 64/21/58
f 51/12/59 25/15/59 62/11/59
f 52/3/60 26/11/60 25/15/60
f 37/15/61 26/12/61 65/21/61
f 52/12/62 67/3/62 65/21/62
f 52/12/63 56/15/63 68/21/63
f 68/21/64 56/12/64 37/15/64
f 66/22/65 65/23/65 67/24/65
f 64/23/66 60/22/66 21/25/66
f 4/8/67 1/1/67 3/3/67
f 8/7/68 5/4/68 7/6/68
f 9/8/69 10/3/69 12/1/69
f 11/6/70 2/5/70 12/7/70
f 3/8/71 2/1/71 10/3/71
f 12/2/72 1/1/72 9/3/72
f 13/20/73 14/9/73 16/11/73
f 17/4/74 18/5/74 20/7/74
f 24/20/75 21/11/75 23/9/75
f 13/4/76 24/7/76 14/5/76
f 15/8/77 14/1/77 22/3/77
f 24/2/78 13/1/78 21/3/78
f 25/19/79 26/12/79 28/14/79
f 28/4/80 27/5/80 30/7/80
f 32/19/81 30/14/81 31/12/81
f 33/7/82 34/6/82 36/4/82
f 27/18/83 26/15/83 29/17/83
f 32/16/84 25/15/84 30/17/84
f 40/18/85 37/15/85 39/17/85
f 42/7/86 40/4/86 41/6/86
f 42/18/87 41/17/87 44/15/87
f 48/4/88 45/7/88 47/5/88
f 39/18/89 38/15/89 41/17/89
f 44/16/90 37/15/90 42/17/90
f 49/19/91 50/12/91 5/14/91
f 8/13/92 51/12/92 5/14/92
f 51/19/93 8/14/93 52/12/93
f 50/19/94 52/12/94 6/14/94
f 49/19/95 4/8/95 50/12/95
f 9/3/96 4/8/96 51/12/96
f 16/11/97 15/10/97 54/15/97
f 53/19/98 15/8/98 55/12/98
f 17/18/99 54/15/99 18/17/99
f 20/13/100 56/12/100 17/14/100
f 20/18/101 19/17/101 56/15/101
f 53/19/102 55/12/102 18/14/102
f 58/11/103 44/15/103 57/10/103
f 59/11/104 57/10/104 38/15/104
f 45/20/105 58/11/105 46/9/105
f 58/10/106 45/9/106 60/11/106
f 48/20/107 47/9/107 60/11/107
f 47/20/108 46/9/108 59/11/108
f 32/16/109 61/10/109 25/15/109
f 32/19/110 31/12/110 61/8/110
f 61/10/111 33/9/111 62/11/111
f 62/8/112 36/1/112 64/3/112
f 35/20/113 34/9/113 64/11/113
f 61/8/114 63/3/114 33/1/114
f 26/3/115 37/11/115 31/12/115
f 63/12/116 58/15/116 64/21/116
f 31/12/117 44/15/117 63/3/117
f 37/3/118 56/11/118 38/12/118
f 59/12/119 22/15/119 60/21/119
f 38/15/120 55/12/120 59/11/120
f 52/3/121 50/12/121 56/11/121
f 50/12/122 3/3/122 54/15/122
f 3/12/123 10/3/123 16/15/123
f 10/3/124 9/12/124 64/21/124
f 9/3/125 51/12/125 62/11/125
f 51/12/126 52/3/126 25/15/126
f 66/11/127 37/15/127 65/21/127
f 26/15/128 52/12/128 65/21/128
f 67/3/129 52/12/129 68/21/129
f 66/11/130 68/21/130 37/15/130
f 68/25/131 66/22/131 67/24/131
f 10/24/132 64/23/132 21/25/132
